<mxfile host="app.diagrams.net" agent="Mozilla/5.0 (X11; Linux x86_64) AppleWebKit/537.36 (KHTML, like Gecko) Chrome/131.0.0.0 Safari/537.36" version="28.0.7">
  <diagram name="Page-1" id="UyHZOKQVb40gdVOyIvR0">
    <mxGraphModel dx="1426" dy="759" grid="1" gridSize="10" guides="1" tooltips="1" connect="1" arrows="1" fold="1" page="1" pageScale="1" pageWidth="850" pageHeight="1100" math="0" shadow="0">
      <root>
        <mxCell id="0" />
        <mxCell id="1" parent="0" />
        <mxCell id="BSixG3VgDPSVyhILkcP1-26" value="CICD Account" style="points=[[0,0],[0.25,0],[0.5,0],[0.75,0],[1,0],[1,0.25],[1,0.5],[1,0.75],[1,1],[0.75,1],[0.5,1],[0.25,1],[0,1],[0,0.75],[0,0.5],[0,0.25]];outlineConnect=0;gradientColor=none;html=1;whiteSpace=wrap;fontSize=12;fontStyle=0;container=1;pointerEvents=0;collapsible=0;recursiveResize=0;shape=mxgraph.aws4.group;grIcon=mxgraph.aws4.group_aws_cloud_alt;strokeColor=#232F3E;fillColor=none;verticalAlign=top;align=left;spacingLeft=30;fontColor=#232F3E;dashed=0;" vertex="1" parent="1">
          <mxGeometry x="80" y="200" width="340" height="480" as="geometry" />
        </mxCell>
        <mxCell id="BSixG3VgDPSVyhILkcP1-27" style="rounded=0;orthogonalLoop=1;jettySize=auto;html=1;edgeStyle=orthogonalEdgeStyle;startArrow=classic;startFill=1;" edge="1" parent="BSixG3VgDPSVyhILkcP1-26" source="BSixG3VgDPSVyhILkcP1-28" target="BSixG3VgDPSVyhILkcP1-31">
          <mxGeometry relative="1" as="geometry" />
        </mxCell>
        <mxCell id="BSixG3VgDPSVyhILkcP1-28" value="Source/CICD Bucket" style="sketch=0;points=[[0,0,0],[0.25,0,0],[0.5,0,0],[0.75,0,0],[1,0,0],[0,1,0],[0.25,1,0],[0.5,1,0],[0.75,1,0],[1,1,0],[0,0.25,0],[0,0.5,0],[0,0.75,0],[1,0.25,0],[1,0.5,0],[1,0.75,0]];outlineConnect=0;fontColor=#232F3E;fillColor=#7AA116;strokeColor=#ffffff;dashed=0;verticalLabelPosition=bottom;verticalAlign=top;align=center;html=1;fontSize=12;fontStyle=0;aspect=fixed;shape=mxgraph.aws4.resourceIcon;resIcon=mxgraph.aws4.s3;" vertex="1" parent="BSixG3VgDPSVyhILkcP1-26">
          <mxGeometry x="70" y="51" width="78" height="78" as="geometry" />
        </mxCell>
        <mxCell id="BSixG3VgDPSVyhILkcP1-29" style="edgeStyle=orthogonalEdgeStyle;rounded=0;orthogonalLoop=1;jettySize=auto;html=1;exitX=0.5;exitY=1;exitDx=0;exitDy=0;exitPerimeter=0;strokeColor=default;startArrow=classic;startFill=1;" edge="1" parent="BSixG3VgDPSVyhILkcP1-26" source="BSixG3VgDPSVyhILkcP1-33" target="BSixG3VgDPSVyhILkcP1-32">
          <mxGeometry relative="1" as="geometry" />
        </mxCell>
        <mxCell id="BSixG3VgDPSVyhILkcP1-30" style="edgeStyle=orthogonalEdgeStyle;rounded=0;orthogonalLoop=1;jettySize=auto;html=1;exitX=1;exitY=0.5;exitDx=0;exitDy=0;exitPerimeter=0;startArrow=classic;startFill=1;" edge="1" parent="BSixG3VgDPSVyhILkcP1-26" source="BSixG3VgDPSVyhILkcP1-31" target="BSixG3VgDPSVyhILkcP1-33">
          <mxGeometry relative="1" as="geometry" />
        </mxCell>
        <mxCell id="BSixG3VgDPSVyhILkcP1-31" value="CodePipeline" style="sketch=0;points=[[0,0,0],[0.25,0,0],[0.5,0,0],[0.75,0,0],[1,0,0],[0,1,0],[0.25,1,0],[0.5,1,0],[0.75,1,0],[1,1,0],[0,0.25,0],[0,0.5,0],[0,0.75,0],[1,0.25,0],[1,0.5,0],[1,0.75,0]];outlineConnect=0;fontColor=#232F3E;fillColor=#C925D1;strokeColor=#ffffff;dashed=0;verticalLabelPosition=bottom;verticalAlign=top;align=center;html=1;fontSize=12;fontStyle=0;aspect=fixed;shape=mxgraph.aws4.resourceIcon;resIcon=mxgraph.aws4.codepipeline;" vertex="1" parent="BSixG3VgDPSVyhILkcP1-26">
          <mxGeometry x="70" y="201" width="78" height="78" as="geometry" />
        </mxCell>
        <mxCell id="BSixG3VgDPSVyhILkcP1-32" value="Terraform State Bucket" style="sketch=0;points=[[0,0,0],[0.25,0,0],[0.5,0,0],[0.75,0,0],[1,0,0],[0,1,0],[0.25,1,0],[0.5,1,0],[0.75,1,0],[1,1,0],[0,0.25,0],[0,0.5,0],[0,0.75,0],[1,0.25,0],[1,0.5,0],[1,0.75,0]];outlineConnect=0;fontColor=#232F3E;fillColor=#7AA116;strokeColor=#ffffff;dashed=0;verticalLabelPosition=bottom;verticalAlign=top;align=center;html=1;fontSize=12;fontStyle=0;aspect=fixed;shape=mxgraph.aws4.resourceIcon;resIcon=mxgraph.aws4.s3;" vertex="1" parent="BSixG3VgDPSVyhILkcP1-26">
          <mxGeometry x="230" y="351" width="78" height="78" as="geometry" />
        </mxCell>
        <mxCell id="BSixG3VgDPSVyhILkcP1-33" value="CodeBuild" style="sketch=0;points=[[0,0,0],[0.25,0,0],[0.5,0,0],[0.75,0,0],[1,0,0],[0,1,0],[0.25,1,0],[0.5,1,0],[0.75,1,0],[1,1,0],[0,0.25,0],[0,0.5,0],[0,0.75,0],[1,0.25,0],[1,0.5,0],[1,0.75,0]];outlineConnect=0;fontColor=#232F3E;fillColor=#C925D1;strokeColor=#ffffff;dashed=0;verticalLabelPosition=bottom;verticalAlign=top;align=center;html=1;fontSize=12;fontStyle=0;aspect=fixed;shape=mxgraph.aws4.resourceIcon;resIcon=mxgraph.aws4.codebuild;" vertex="1" parent="BSixG3VgDPSVyhILkcP1-26">
          <mxGeometry x="230" y="201" width="78" height="78" as="geometry" />
        </mxCell>
        <mxCell id="BSixG3VgDPSVyhILkcP1-34" value="" style="edgeStyle=orthogonalEdgeStyle;rounded=0;orthogonalLoop=1;jettySize=auto;html=1;" edge="1" parent="BSixG3VgDPSVyhILkcP1-26" target="BSixG3VgDPSVyhILkcP1-33">
          <mxGeometry relative="1" as="geometry">
            <mxPoint x="269" y="121" as="sourcePoint" />
          </mxGeometry>
        </mxCell>
        <mxCell id="BSixG3VgDPSVyhILkcP1-35" value="CodeBuild Service Role" style="sketch=0;outlineConnect=0;fontColor=#232F3E;gradientColor=none;fillColor=#DD344C;strokeColor=none;dashed=0;verticalLabelPosition=bottom;verticalAlign=top;align=center;html=1;fontSize=12;fontStyle=0;aspect=fixed;pointerEvents=1;shape=mxgraph.aws4.role;" vertex="1" parent="BSixG3VgDPSVyhILkcP1-26">
          <mxGeometry x="230" y="51" width="78" height="44" as="geometry" />
        </mxCell>
        <mxCell id="BSixG3VgDPSVyhILkcP1-36" value="1" style="ellipse;whiteSpace=wrap;html=1;aspect=fixed;fillColor=#fa6800;fontColor=#000000;strokeColor=#C73500;" vertex="1" parent="BSixG3VgDPSVyhILkcP1-26">
          <mxGeometry x="40" y="201" width="30" height="30" as="geometry" />
        </mxCell>
        <mxCell id="BSixG3VgDPSVyhILkcP1-37" value="2" style="ellipse;whiteSpace=wrap;html=1;aspect=fixed;fillColor=#fa6800;fontColor=#000000;strokeColor=#C73500;" vertex="1" parent="BSixG3VgDPSVyhILkcP1-26">
          <mxGeometry x="200" y="192" width="30" height="30" as="geometry" />
        </mxCell>
        <mxCell id="BSixG3VgDPSVyhILkcP1-38" value="3" style="ellipse;whiteSpace=wrap;html=1;aspect=fixed;fillColor=#fa6800;fontColor=#000000;strokeColor=#C73500;" vertex="1" parent="BSixG3VgDPSVyhILkcP1-26">
          <mxGeometry x="40" y="51" width="30" height="30" as="geometry" />
        </mxCell>
        <mxCell id="BSixG3VgDPSVyhILkcP1-39" value="4" style="ellipse;whiteSpace=wrap;html=1;aspect=fixed;fillColor=#fa6800;fontColor=#000000;strokeColor=#C73500;" vertex="1" parent="BSixG3VgDPSVyhILkcP1-26">
          <mxGeometry x="200" y="341" width="30" height="30" as="geometry" />
        </mxCell>
        <mxCell id="BSixG3VgDPSVyhILkcP1-40" value="5" style="ellipse;whiteSpace=wrap;html=1;aspect=fixed;fillColor=#fa6800;fontColor=#000000;strokeColor=#C73500;" vertex="1" parent="BSixG3VgDPSVyhILkcP1-26">
          <mxGeometry x="200" y="51" width="30" height="30" as="geometry" />
        </mxCell>
        <mxCell id="BSixG3VgDPSVyhILkcP1-54" style="edgeStyle=orthogonalEdgeStyle;rounded=0;orthogonalLoop=1;jettySize=auto;html=1;" edge="1" parent="BSixG3VgDPSVyhILkcP1-26" source="BSixG3VgDPSVyhILkcP1-51" target="BSixG3VgDPSVyhILkcP1-31">
          <mxGeometry relative="1" as="geometry" />
        </mxCell>
        <mxCell id="BSixG3VgDPSVyhILkcP1-51" value="CodePipeline Service Role" style="sketch=0;outlineConnect=0;fontColor=#232F3E;gradientColor=none;fillColor=#DD344C;strokeColor=none;dashed=0;verticalLabelPosition=bottom;verticalAlign=top;align=center;html=1;fontSize=12;fontStyle=0;aspect=fixed;pointerEvents=1;shape=mxgraph.aws4.role;" vertex="1" parent="BSixG3VgDPSVyhILkcP1-26">
          <mxGeometry x="70" y="360" width="78" height="44" as="geometry" />
        </mxCell>
        <mxCell id="BSixG3VgDPSVyhILkcP1-52" value="6" style="ellipse;whiteSpace=wrap;html=1;aspect=fixed;fillColor=#fa6800;fontColor=#000000;strokeColor=#C73500;" vertex="1" parent="BSixG3VgDPSVyhILkcP1-26">
          <mxGeometry x="40" y="341" width="30" height="30" as="geometry" />
        </mxCell>
        <mxCell id="BSixG3VgDPSVyhILkcP1-41" value="Target Account" style="points=[[0,0],[0.25,0],[0.5,0],[0.75,0],[1,0],[1,0.25],[1,0.5],[1,0.75],[1,1],[0.75,1],[0.5,1],[0.25,1],[0,1],[0,0.75],[0,0.5],[0,0.25]];outlineConnect=0;gradientColor=none;html=1;whiteSpace=wrap;fontSize=12;fontStyle=0;container=1;pointerEvents=0;collapsible=0;recursiveResize=0;shape=mxgraph.aws4.group;grIcon=mxgraph.aws4.group_aws_cloud_alt;strokeColor=#232F3E;fillColor=none;verticalAlign=top;align=left;spacingLeft=30;fontColor=#232F3E;dashed=0;" vertex="1" parent="1">
          <mxGeometry x="510" y="200" width="290" height="480" as="geometry" />
        </mxCell>
        <mxCell id="BSixG3VgDPSVyhILkcP1-42" value="Cross-account Role" style="sketch=0;outlineConnect=0;fontColor=#232F3E;gradientColor=none;fillColor=#DD344C;strokeColor=none;dashed=0;verticalLabelPosition=bottom;verticalAlign=top;align=center;html=1;fontSize=12;fontStyle=0;aspect=fixed;pointerEvents=1;shape=mxgraph.aws4.role;" vertex="1" parent="BSixG3VgDPSVyhILkcP1-41">
          <mxGeometry x="99" y="60" width="78" height="44" as="geometry" />
        </mxCell>
        <mxCell id="BSixG3VgDPSVyhILkcP1-43" value="EC2 Instance" style="sketch=0;points=[[0,0,0],[0.25,0,0],[0.5,0,0],[0.75,0,0],[1,0,0],[0,1,0],[0.25,1,0],[0.5,1,0],[0.75,1,0],[1,1,0],[0,0.25,0],[0,0.5,0],[0,0.75,0],[1,0.25,0],[1,0.5,0],[1,0.75,0]];outlineConnect=0;fontColor=#232F3E;fillColor=#ED7100;strokeColor=#ffffff;dashed=0;verticalLabelPosition=bottom;verticalAlign=top;align=center;html=1;fontSize=12;fontStyle=0;aspect=fixed;shape=mxgraph.aws4.resourceIcon;resIcon=mxgraph.aws4.ec2;" vertex="1" parent="BSixG3VgDPSVyhILkcP1-41">
          <mxGeometry x="69" y="341" width="78" height="78" as="geometry" />
        </mxCell>
        <mxCell id="BSixG3VgDPSVyhILkcP1-44" value="EC2 Instance Profile" style="sketch=0;outlineConnect=0;fontColor=#232F3E;gradientColor=none;fillColor=#DD344C;strokeColor=none;dashed=0;verticalLabelPosition=bottom;verticalAlign=top;align=center;html=1;fontSize=12;fontStyle=0;aspect=fixed;pointerEvents=1;shape=mxgraph.aws4.role;" vertex="1" parent="BSixG3VgDPSVyhILkcP1-41">
          <mxGeometry x="189" y="350" width="78" height="44" as="geometry" />
        </mxCell>
        <mxCell id="BSixG3VgDPSVyhILkcP1-45" value="7" style="ellipse;whiteSpace=wrap;html=1;aspect=fixed;fillColor=#fa6800;fontColor=#000000;strokeColor=#C73500;" vertex="1" parent="BSixG3VgDPSVyhILkcP1-41">
          <mxGeometry x="89" y="40" width="30" height="30" as="geometry" />
        </mxCell>
        <mxCell id="BSixG3VgDPSVyhILkcP1-46" value="8" style="ellipse;whiteSpace=wrap;html=1;aspect=fixed;fillColor=#fa6800;fontColor=#000000;strokeColor=#C73500;" vertex="1" parent="BSixG3VgDPSVyhILkcP1-41">
          <mxGeometry x="159" y="280" width="30" height="30" as="geometry" />
        </mxCell>
        <mxCell id="BSixG3VgDPSVyhILkcP1-47" style="edgeStyle=orthogonalEdgeStyle;rounded=0;orthogonalLoop=1;jettySize=auto;html=1;" edge="1" parent="1" source="BSixG3VgDPSVyhILkcP1-42" target="BSixG3VgDPSVyhILkcP1-33">
          <mxGeometry relative="1" as="geometry">
            <Array as="points">
              <mxPoint x="460" y="282" />
              <mxPoint x="460" y="420" />
            </Array>
          </mxGeometry>
        </mxCell>
        <mxCell id="BSixG3VgDPSVyhILkcP1-48" style="edgeStyle=orthogonalEdgeStyle;rounded=0;orthogonalLoop=1;jettySize=auto;html=1;exitX=1;exitY=0.75;exitDx=0;exitDy=0;exitPerimeter=0;dashed=1;" edge="1" parent="1" source="BSixG3VgDPSVyhILkcP1-33" target="BSixG3VgDPSVyhILkcP1-44">
          <mxGeometry relative="1" as="geometry" />
        </mxCell>
        <mxCell id="BSixG3VgDPSVyhILkcP1-49" value="&lt;b&gt;Terraform&lt;/b&gt;" style="edgeLabel;html=1;align=center;verticalAlign=middle;resizable=0;points=[];" vertex="1" connectable="0" parent="BSixG3VgDPSVyhILkcP1-48">
          <mxGeometry x="0.1186" relative="1" as="geometry">
            <mxPoint x="-51" y="-9" as="offset" />
          </mxGeometry>
        </mxCell>
        <mxCell id="BSixG3VgDPSVyhILkcP1-50" style="edgeStyle=orthogonalEdgeStyle;rounded=0;orthogonalLoop=1;jettySize=auto;html=1;exitX=1;exitY=0.75;exitDx=0;exitDy=0;exitPerimeter=0;dashed=1;" edge="1" parent="1" source="BSixG3VgDPSVyhILkcP1-33" target="BSixG3VgDPSVyhILkcP1-43">
          <mxGeometry relative="1" as="geometry" />
        </mxCell>
      </root>
    </mxGraphModel>
  </diagram>
</mxfile>
